<svg width="116" height="18" fill="none" xmlns="http://www.w3.org/2000/svg"><path d="M3.654 6.7c0-.588.054-1.122.162-1.602.108-.492.264-.906.468-1.242.204-.348.444-.612.72-.792.288-.192.606-.288.954-.288s.66.096.936.288c.288.18.534.444.738.792.204.336.36.75.468 1.242.108.48.162 1.014.162 1.602 0 .588-.054 1.128-.162 1.62a4.32 4.32 0 0 1-.468 1.242c-.204.336-.45.6-.738.792-.276.18-.588.27-.936.27-.348 0-.666-.09-.954-.27a2.568 2.568 0 0 1-.72-.792 4.32 4.32 0 0 1-.468-1.242 7.561 7.561 0 0 1-.162-1.62ZM.72 6.7c0 1.368.216 2.538.648 3.51.444.972 1.062 1.722 1.854 2.25.792.516 1.704.774 2.736.774 1.08 0 2.01-.258 2.79-.774.78-.528 1.38-1.278 1.8-2.25.432-.972.648-2.142.648-3.51 0-1.368-.216-2.538-.648-3.51-.42-.972-1.02-1.716-1.8-2.232-.78-.528-1.71-.792-2.79-.792-1.032 0-1.944.264-2.736.792-.792.516-1.41 1.26-1.854 2.232C.936 4.162.72 5.332.72 6.7Zm18.813 1.872-2.125 1.53c.288.6.69 1.152 1.206 1.656a5.936 5.936 0 0 0 1.819 1.206c.707.288 1.47.432 2.285.432.588 0 1.159-.09 1.71-.27a4.498 4.498 0 0 0 1.494-.756c.444-.336.793-.75 1.044-1.242.264-.504.396-1.074.396-1.71 0-.528-.083-.996-.252-1.404a3.424 3.424 0 0 0-.701-1.08 4.089 4.089 0 0 0-1.008-.792 7.91 7.91 0 0 0-1.242-.594 23.215 23.215 0 0 1-1.512-.576c-.409-.18-.726-.378-.954-.594a1.036 1.036 0 0 1-.325-.756c0-.276.115-.504.343-.684.228-.192.558-.288.99-.288.323 0 .623.066.9.198.288.12.546.294.774.522.24.216.45.474.63.774l2.322-1.296a5.182 5.182 0 0 0-.937-1.278c-.407-.42-.924-.768-1.547-1.044C24.23.25 23.505.112 22.665.112c-.816 0-1.56.144-2.232.432a3.675 3.675 0 0 0-1.584 1.224c-.384.54-.576 1.182-.576 1.926 0 .624.114 1.158.341 1.602.229.432.517.804.864 1.116.348.3.714.546 1.098.738.396.192.744.342 1.044.45.613.228 1.104.432 1.476.612.372.18.642.372.81.576.169.192.253.45.253.774 0 .384-.144.69-.432.918-.288.216-.654.324-1.099.324-.42 0-.822-.09-1.206-.27a3.683 3.683 0 0 1-1.044-.774 6 6 0 0 1-.846-1.188ZM31.72 9.76V4.72h-2.845v5.328c0 .984.234 1.758.702 2.322.48.552 1.236.828 2.268.828.613 0 1.122-.126 1.53-.378a3.01 3.01 0 0 0 .99-1.062V13h2.718V4.72h-2.718v5.04c0 .324-.06.6-.18.828-.12.228-.288.402-.504.522-.204.12-.456.18-.756.18-.444 0-.756-.132-.936-.396-.18-.276-.27-.654-.27-1.134Zm6.953 3.834c.06.732.258 1.374.594 1.926.336.564.834 1.002 1.494 1.314.672.312 1.518.468 2.538.468.852 0 1.62-.156 2.304-.468.684-.3 1.23-.78 1.638-1.44.42-.66.63-1.518.63-2.574v-8.1h-2.61v8.1c0 .504-.096.924-.288 1.26-.18.348-.426.606-.738.774-.312.18-.66.27-1.044.27-.348 0-.66-.06-.936-.18a1.475 1.475 0 0 1-.666-.504 1.817 1.817 0 0 1-.288-.846h-2.628Zm-.18-4.842c0 .924.186 1.698.558 2.322a3.894 3.894 0 0 0 1.476 1.422c.6.312 1.236.468 1.908.468.696 0 1.308-.162 1.836-.486.54-.336.966-.816 1.278-1.44.312-.636.468-1.398.468-2.286 0-.9-.156-1.662-.468-2.286-.312-.624-.738-1.098-1.278-1.422-.528-.336-1.14-.504-1.836-.504-.672 0-1.308.156-1.908.468-.6.312-1.092.78-1.476 1.404-.372.624-.558 1.404-.558 2.34Zm2.862 0c0-.432.09-.798.27-1.098.18-.3.42-.528.72-.684.3-.156.63-.234.99-.234.228 0 .456.042.684.126.228.084.432.21.612.378.192.168.342.378.45.63.12.252.18.546.18.882 0 .444-.096.816-.288 1.116-.192.3-.438.528-.738.684a1.988 1.988 0 0 1-.9.216c-.36 0-.69-.078-.99-.234-.3-.156-.54-.384-.72-.684-.18-.312-.27-.678-.27-1.098Zm8.054 4.842c.06.732.258 1.374.594 1.926.336.564.834 1.002 1.494 1.314.672.312 1.518.468 2.538.468.852 0 1.62-.156 2.304-.468.684-.3 1.23-.78 1.638-1.44.42-.66.63-1.518.63-2.574v-8.1h-2.61v8.1c0 .504-.096.924-.288 1.26-.18.348-.426.606-.738.774-.312.18-.66.27-1.044.27-.348 0-.66-.06-.936-.18a1.475 1.475 0 0 1-.666-.504 1.817 1.817 0 0 1-.288-.846H49.41Zm-.18-4.842c0 .924.186 1.698.558 2.322a3.894 3.894 0 0 0 1.476 1.422c.6.312 1.236.468 1.908.468.696 0 1.308-.162 1.836-.486.54-.336.966-.816 1.278-1.44.312-.636.468-1.398.468-2.286 0-.9-.156-1.662-.468-2.286-.312-.624-.738-1.098-1.278-1.422-.528-.336-1.14-.504-1.836-.504-.672 0-1.308.156-1.908.468-.6.312-1.092.78-1.476 1.404-.372.624-.558 1.404-.558 2.34Zm2.862 0c0-.432.09-.798.27-1.098.18-.3.42-.528.72-.684.3-.156.63-.234.99-.234.228 0 .456.042.684.126.228.084.432.21.612.378.192.168.342.378.45.63.12.252.18.546.18.882 0 .444-.096.816-.288 1.116-.192.3-.438.528-.738.684a1.988 1.988 0 0 1-.9.216c-.36 0-.69-.078-.99-.234-.3-.156-.54-.384-.72-.684-.18-.312-.27-.678-.27-1.098Zm12.573 4.428c1.056 0 1.95-.204 2.682-.612.744-.408 1.332-1.02 1.764-1.836l-2.43-.594c-.204.36-.48.63-.828.81-.336.18-.744.27-1.224.27-.42 0-.774-.09-1.062-.27a1.738 1.738 0 0 1-.648-.828c-.144-.36-.216-.792-.216-1.296.012-.552.084-1.008.216-1.368.144-.372.354-.648.63-.828.276-.18.618-.27 1.026-.27.324 0 .606.072.846.216.24.144.426.348.558.612.132.264.198.576.198.936a.998.998 0 0 1-.072.324c-.036.12-.084.222-.144.306l.648-.828h-5.112v1.512h7.56c.024-.084.036-.186.036-.306v-.396c0-.888-.174-1.644-.522-2.268a3.403 3.403 0 0 0-1.512-1.422c-.66-.336-1.47-.504-2.43-.504-.96 0-1.794.174-2.502.522a3.714 3.714 0 0 0-1.602 1.494c-.372.648-.558 1.416-.558 2.304 0 .876.192 1.638.576 2.286a3.945 3.945 0 0 0 1.62 1.512c.708.348 1.542.522 2.502.522Zm6.306-3.186-1.134 1.8a9.51 9.51 0 0 0 1.206.792c.432.228.9.408 1.404.54a6.208 6.208 0 0 0 1.674.216c.984 0 1.746-.222 2.286-.666.552-.456.828-1.128.828-2.016 0-.516-.114-.93-.342-1.242a2.526 2.526 0 0 0-.882-.774 7.732 7.732 0 0 0-1.188-.54 26.194 26.194 0 0 0-1.044-.378 2.67 2.67 0 0 1-.648-.342.562.562 0 0 1-.216-.45.46.46 0 0 1 .18-.378c.132-.096.324-.144.576-.144.372 0 .78.108 1.224.324.444.204.84.468 1.188.792l.972-1.764a6.52 6.52 0 0 0-1.044-.63c-.36-.18-.75-.324-1.17-.432a5.194 5.194 0 0 0-1.332-.162c-.6 0-1.134.09-1.602.27-.456.18-.822.444-1.098.792-.264.348-.396.774-.396 1.278 0 .528.114.96.342 1.296.228.336.516.606.864.81.36.192.738.36 1.134.504a7.49 7.49 0 0 1 1.044.378c.264.12.45.246.558.378.108.12.162.27.162.45a.603.603 0 0 1-.198.468c-.132.12-.336.18-.612.18a2.66 2.66 0 0 1-.684-.108 5.258 5.258 0 0 1-.918-.414 9.79 9.79 0 0 1-1.134-.828Zm6.537-5.274v2.25h5.544V4.72h-5.544Zm1.458-2.88V13h2.61V1.84h-2.61Zm4.832-.234c0 .432.156.786.468 1.062.312.276.684.414 1.116.414.444 0 .816-.138 1.116-.414.312-.276.468-.63.468-1.062 0-.432-.156-.78-.468-1.044-.3-.276-.672-.414-1.116-.414-.432 0-.804.138-1.116.414-.312.264-.468.612-.468 1.044Zm.27 3.114V13h2.628V4.72h-2.628ZM88.2 8.86c0 .864.204 1.62.612 2.268a4.14 4.14 0 0 0 1.692 1.512c.72.36 1.53.54 2.43.54.9 0 1.704-.18 2.412-.54a4.14 4.14 0 0 0 1.692-1.512c.42-.648.63-1.404.63-2.268 0-.876-.21-1.638-.63-2.286a4.14 4.14 0 0 0-1.692-1.512c-.708-.36-1.512-.54-2.412-.54-.9 0-1.71.18-2.43.54a4.14 4.14 0 0 0-1.692 1.512c-.408.648-.612 1.41-.612 2.286Zm2.79 0c0-.432.09-.804.27-1.116.18-.312.414-.552.702-.72.288-.168.612-.252.972-.252.348 0 .666.084.954.252.3.168.534.408.702.72.18.312.27.684.27 1.116 0 .432-.09.804-.27 1.116-.168.3-.402.534-.702.702a1.859 1.859 0 0 1-.954.252 1.893 1.893 0 0 1-1.674-.954c-.18-.312-.27-.684-.27-1.116Zm13.445-.9V13h2.826V7.672c0-.996-.234-1.77-.702-2.322-.468-.552-1.218-.828-2.25-.828-.612 0-1.128.126-1.548.378a2.688 2.688 0 0 0-.972 1.062V4.72h-2.736V13h2.736V7.96c0-.324.06-.6.18-.828.12-.228.288-.402.504-.522.216-.12.468-.18.756-.18.432 0 .738.132.918.396.192.264.288.642.288 1.134Zm5.172 2.034-1.134 1.8a9.51 9.51 0 0 0 1.206.792c.432.228.9.408 1.404.54a6.208 6.208 0 0 0 1.674.216c.984 0 1.746-.222 2.286-.666.552-.456.828-1.128.828-2.016 0-.516-.114-.93-.342-1.242a2.526 2.526 0 0 0-.882-.774 7.732 7.732 0 0 0-1.188-.54 26.194 26.194 0 0 0-1.044-.378 2.67 2.67 0 0 1-.648-.342.562.562 0 0 1-.216-.45.46.46 0 0 1 .18-.378c.132-.096.324-.144.576-.144.372 0 .78.108 1.224.324.444.204.84.468 1.188.792l.972-1.764a6.52 6.52 0 0 0-1.044-.63c-.36-.18-.75-.324-1.17-.432a5.194 5.194 0 0 0-1.332-.162c-.6 0-1.134.09-1.602.27-.456.18-.822.444-1.098.792-.264.348-.396.774-.396 1.278 0 .528.114.96.342 1.296.228.336.516.606.864.81.36.192.738.36 1.134.504a7.49 7.49 0 0 1 1.044.378c.264.12.45.246.558.378.108.12.162.27.162.45a.603.603 0 0 1-.198.468c-.132.12-.336.18-.612.18a2.66 2.66 0 0 1-.684-.108 5.258 5.258 0 0 1-.918-.414 9.79 9.79 0 0 1-1.134-.828Z" fill="#fff"/></svg>